# xmcd
#
# Track frame offsets: 
#        150
#        25456
#        47431
#        70357
#        86609
#        106040
#        125402
#        136992
#        148699
#        166726
#        188331
#
# Disc length: 2662 seconds
#
# Revision: 0
# Processed by: cddbd v1.5.2PL0 Copyright (c) Steve Scherf et al.
# Submitted via: ExactAudioCopy v0.99pb3
#
DISCID=8b0a640b
DTITLE=HYPNÖS - Demons - The Collection 1999-2003
DYEAR=2004
DGENRE=Death Metal
TTITLE0=Supernatural race disharmony
TTITLE1=Krieg - the alpha paradox
TTITLE2=Journey into doom (live)
TTITLE3=Regicide (live)
TTITLE4=Breeding the scum (live)
TTITLE5=Crystal purity of treachery
TTITLE6=In blood we trust
TTITLE7=International
TTITLE8=Breeding the scum
TTITLE9=The cave
TTITLE10=In blood we trust
EXTD=Released as CD/limited CD in paper box\n\nTrack 1 and 2: Promo 2003
EXTD=\nline-up: BRUNO - bass, voc, PEGAS - drums, BUTCH MILLS - guita
EXTD=r\n\nTrack 3, 4 and 5: Recorded live at Ostrava-CZ (club Fabric) 24
EXTD=10.2002.\nline-up: BRUNO - bass, voc, PEGAS - drums, BUTCH MILLS
EXTD=guitar, ALEX - guitar\n\nTrack 6: Taken from 2nd album THE REV
EXTD=ENGE RIDE (Morbid Records 2001).\nline-up: BRUNO - bass, voc, PEG
EXTD=AS - drums, DAVID M. - guitar\n\nTrack 7: Recorded during debut a
EXTD=lbum recording session IN BLOOD WE TRUST\n(Morbid Records 2000]\n
EXTD=line-up: BRUNO - bass, PEGAS - drums, HIRE - guitar, MIKA LUTTINE
EXTD=N - vocal\n(guest]\n\nTrack 8, 9, 10 and 11: Debut demo recording, 
EXTD=later released as MCD HYPNOS (Morbid\nRecords 2000).\nline-up: BR
EXTD=UNO - bass, voc, PEGAS - drums, R.A.D. - guitar
EXTT0=
EXTT1=
EXTT2=
EXTT3=
EXTT4=
EXTT5=
EXTT6=
EXTT7=
EXTT8=
EXTT9=
EXTT10=
PLAYORDER=
